<svg width="286" height="273" viewBox="0 0 286 273" fill="none" xmlns="http://www.w3.org/2000/svg">
<path d="M266.821 176.071C262.882 139.231 232.412 115.817 210.819 106.925C189.226 98.0337 167.874 84.0794 162.816 53.2091C157.758 22.3382 127.782 2.70031 101.1 9.77887C72.2414 17.4335 21.5503 46.9557 25.0973 117.783C27.3556 162.909 47.4501 203.477 69.099 230.93C90.7478 258.384 112.083 275.731 132.53 272.646C152.976 269.561 152.09 252.031 152.53 244.645C152.97 237.258 158.009 217.81 193.675 230.359C236.148 245.303 271.224 217.277 266.821 176.071Z" fill="url(#paint0_linear_103_137)"/>
<path d="M33.0964 140.07C71.5745 134.404 95.6851 119.171 102.813 90.3528C110.79 58.1076 109.885 32.8449 138.243 12.6356C173.864 -12.7477 232.251 0.0670759 265.105 51.4942C281.327 76.8843 295.208 117.022 277.106 157.785C263.813 187.719 227.94 206.242 194.245 202.929C169.407 200.487 138.13 199.606 114.242 223.501C90.3546 247.396 56.8133 257.194 26.239 237.788C-7.59602 216.314 -12.1659 146.733 33.0964 140.07Z" fill="url(#paint1_linear_103_137)"/>
<path d="M176.489 264.669C184.694 264.669 191.347 258.016 191.347 249.812C191.347 241.606 184.694 234.954 176.489 234.954C168.283 234.954 161.631 241.606 161.631 249.812C161.631 258.016 168.283 264.669 176.489 264.669Z" fill="url(#paint2_linear_103_137)"/>
<path d="M249.058 16.91C253.014 16.91 256.626 18.1409 259.915 20.3387C263.205 22.5365 265.83 25.8269 267.344 29.4819C268.857 33.1369 269.259 37.0314 268.487 40.9109C267.715 44.7911 266.141 48.3998 263.344 51.197C260.546 53.9943 256.938 55.5681 253.059 56.3401C249.179 57.1116 245.284 56.711 241.63 55.1972C237.975 53.6834 234.684 51.0576 232.486 47.7683C230.288 44.4791 229.058 40.8664 229.058 36.9108C229.058 31.606 231.021 26.3755 234.772 22.6245C238.523 18.8735 243.754 16.91 249.058 16.91Z" fill="url(#paint3_linear_103_137)"/>
<path d="M121.1 153.212C121.622 153.896 122.106 154.434 122.815 154.927C123.869 155.489 125.05 155.972 126.243 156.07L144.53 158.927C144.71 158.939 144.95 158.828 145.101 158.927C145.202 159.034 145.055 159.358 145.101 159.498C145.118 159.352 145.148 159.638 145.101 159.498C145.185 162.86 144.942 166.566 143.958 169.784C143.907 170.048 143.577 170.163 143.387 170.356C143.142 170.519 143.111 170.359 142.816 170.356C136.715 170.868 130.076 171.09 123.958 170.927C122.929 170.941 122.102 170.59 121.1 170.356C119.396 169.883 117.813 168.685 116.529 167.499C113.774 164.962 102.919 155.167 102.243 153.784C101.346 151.802 100.497 149.603 99.9567 147.498C99.3887 145.473 103.471 145.03 103.385 142.926C103.325 141.471 103.551 140.324 103.957 138.926C104.259 137.678 104.783 136.431 105.671 135.497C106.296 134.935 105.379 130.971 106.243 130.926C107.243 134.3 111.706 141.178 113.672 144.069C115.856 147.292 118.581 150.239 121.1 153.212Z" fill="#FFC947"/>
<path d="M75.3843 124.64C74.1648 125.722 73.0025 126.82 71.9556 128.069C69.4481 131.134 67.796 134.719 66.2411 138.355C62.1049 148.03 58.3116 158.182 59.3837 168.642C59.4043 169.271 59.6471 170.377 59.9551 170.927C60.4437 171.55 61.4689 171.885 62.2409 172.07C64.2324 172.702 66.4051 172.625 68.5269 172.642C76.7026 172.715 84.3578 172.465 92.5278 172.07C93.793 172.008 95.4782 172.21 96.528 171.499C97.2949 170.915 97.8389 170.086 98.2423 169.213C100.438 165.104 101.112 160.394 102.814 156.07C105.084 150.425 108.528 141.285 108.528 136.069C108.528 123.22 77.9604 122.308 75.3843 124.64Z" fill="#FFC947"/>
<path d="M112.093 104.234C111.091 108.848 110.01 113.376 107.398 117.333C106.444 118.932 105.003 120.405 103.36 121.296C101.691 122.108 99.7618 122.276 98.217 121.247C97.4449 120.739 96.7909 119.72 95.9419 120.084C95.327 120.354 94.8745 121.128 94.7831 121.787C94.5556 123.403 94.492 125.315 94.7348 126.93C94.8357 127.384 95.3524 127.616 95.2956 128.078C95.1817 128.506 94.472 128.913 94.1415 129.21C93.8117 129.507 93.4331 129.701 92.9939 129.771C92.1145 129.89 91.5056 129.573 90.7129 129.178C89.4799 128.616 88.1313 127.931 87.3061 126.86C86.4821 125.79 85.8477 124.744 85.6243 123.415C85.5138 122.517 85.6366 121.462 85.6514 120.558C85.5812 116.547 85.0245 112.555 85.1926 108.553C85.3606 104.55 86.5329 100.093 89.3005 97.1622C90.8977 95.5672 92.3931 94.6662 94.4758 93.7813C97.581 92.3466 101.407 91.0264 104.783 91.5934C106.126 91.8164 107.069 92.5787 108.195 93.3396C109.321 94.101 110.324 95.0642 111.026 96.2239C112.77 98.9383 112.786 101.036 112.093 104.234Z" fill="#F5DFCD"/>
<path d="M120.676 93.9166C120.915 92.021 120.438 89.8925 119.558 88.1972C118.677 86.5019 117.263 85.0735 115.575 84.18C114.072 83.4232 112.634 82.885 111.01 82.446C107.208 81.4068 103.495 79.9205 99.5938 79.5398C95.6923 79.1596 91.0417 80.534 89.2881 84.0672C88.9671 84.7138 88.8375 85.6093 88.1379 85.7766C87.756 85.8161 87.3631 85.8819 86.995 85.7717C84.3895 85.3005 81.8781 87.3801 80.6919 89.7449C78.7777 93.5728 78.5271 98.0508 78.9237 102.309C79.2874 106.249 80.3024 110.203 83.4511 112.615C83.7627 112.855 84.2893 113.446 84.5915 113.191C84.7299 113.048 85.144 112.821 85.1654 112.622C85.4896 111.13 85.2625 109.576 85.1851 108.051C85.1276 106.914 84.8995 105.74 85.1998 104.622C85.5 103.504 86.9081 102.309 88.0668 102.349C89.1405 102.353 89.5089 103.595 89.7713 104.642C89.9571 105.707 90.0327 106.453 89.7591 107.499C89.9275 107.926 90.8002 107.375 90.9044 106.932C91.7037 103.366 91.8886 99.3162 94.3772 96.6611C94.879 97.1849 95.3161 98.2526 95.5103 98.9517C95.8822 98.5699 96.1404 97.9401 96.6581 97.8137C97.1764 97.6874 97.8663 97.6532 98.3724 97.8211C99.09 98.1373 99.5068 99.0072 100.079 99.5428C106.093 104.28 119.37 102.937 120.676 93.9166Z" fill="#94411A"/>
<path d="M74.2408 130.925C72.3476 132.297 71.4402 134.312 71.3836 136.64C71.327 138.968 73.6282 154.16 75.9552 158.355C77.7581 161.617 81.676 169.719 87.3842 172.07C89.0746 172.767 114.076 172.752 125.672 171.498C125.599 168.76 125.281 165.665 125.101 162.927C125.118 162.565 125.318 162.644 125.101 162.355C124.807 162.052 124.375 160.069 123.958 160.069C117.196 160.097 110.147 162.197 103.385 162.355C102.403 162.418 101.495 161.962 100.528 161.784C99.7355 161.586 98.9447 161.626 98.2418 161.212C93.0239 158.266 89.9957 152.555 87.9557 146.926C86.395 142.585 85.6379 137.837 83.3841 133.783C82.584 132.337 81.5331 130.989 79.9554 130.354C78.1016 129.606 75.9598 129.682 74.2408 130.925Z" fill="#FFC947"/>
<path d="M127.148 159.343C130.65 158.937 134.65 159.878 136.931 162.57C137.17 162.815 137.455 162.792 137.514 163.13C137.518 163.435 137.706 164.019 137.538 164.273C136.271 166.484 133.129 166.929 130.753 167.843C129.516 168.315 128.454 168.881 127.36 169.627C126.746 170.136 125.866 170.605 125.098 170.817C123.413 171.106 121.837 169.54 121.04 168.043C120.126 166.367 118.67 162.837 120.327 161.198C121.681 159.899 125.416 159.536 127.148 159.343Z" fill="#F5DFCD"/>
<path d="M156.135 157.7C156.769 158.025 156.893 158.227 157.324 158.795C157.534 159.082 157.902 159.559 157.942 159.913C157.982 160.266 158.13 160.727 157.989 161.055C157.742 161.46 157.306 162.007 156.895 162.244C153.882 164.207 149.814 164.225 146.759 166.095C146.137 166.587 145.865 167.124 145.094 167.308C144.636 167.337 143.803 167.555 143.381 167.379C142.958 167.202 142.492 166.629 142.192 166.284C141.592 165.598 141.275 164.901 140.955 164.048C136.9 154.605 150.736 154.571 156.135 157.7Z" fill="#F5DFCD"/>
<path d="M66.8125 154.356H81.6702V166.356C81.6702 167.502 81.3336 168.975 80.5273 169.785C79.721 170.595 78.2392 170.928 77.0986 170.928H71.3841C70.2435 170.928 68.7617 170.595 67.9554 169.785C67.1491 168.975 66.8125 167.502 66.8125 166.356V154.356Z" fill="white"/>
<path d="M80.5273 157.213H85.0989C86.0396 157.213 86.7196 157.69 87.3848 158.356C88.0499 159.022 88.5277 159.7 88.5277 160.642V162.356C88.5277 163.297 88.0499 163.976 87.3848 164.642C86.7196 165.308 86.0396 165.785 85.0989 165.785H80.5273V157.213Z" stroke="white" stroke-width="3.3" stroke-miterlimit="10"/>
<path d="M243.391 169.785H45.0974C43.3573 169.785 41.6687 171.478 41.6687 173.214C41.6687 174.949 43.3573 176.071 45.0974 176.071H243.391C245.13 176.071 246.819 174.949 246.819 173.214C246.819 171.478 245.13 169.785 243.391 169.785Z" fill="#0D0D36"/>
<path d="M207.389 202.946C202.99 203.227 198.578 203.165 194.209 202.735C169.383 200.294 138.043 199.536 114.165 223.449C108.586 229.035 102.46 233.865 95.9565 237.739V176.642H207.389V202.946Z" fill="#01346A"/>
<path d="M95.9565 237.536C82.5863 245.535 67.6143 249.503 52.5262 247.713V176.642H95.9565V237.536Z" fill="#011856"/>
<path d="M129.101 169.785H202.246C204.282 169.785 205.675 168.408 205.675 166.356C205.675 164.304 204.282 162.356 202.246 162.356H129.101C127.065 162.356 125.672 164.304 125.672 166.356C125.672 168.408 127.065 169.785 129.101 169.785Z" fill="#0B61A3"/>
<path d="M154.245 169.785H210.247L225.104 132.641C225.3 132.144 225.164 131.456 225.104 130.926C225.045 130.397 224.834 130.224 224.533 129.783C224.232 129.343 223.863 128.89 223.39 128.641C222.917 128.39 222.211 128.069 221.676 128.069H178.245C176.124 128.073 173.712 128.593 171.959 129.783C170.206 130.974 168.738 132.961 167.959 134.927L154.245 169.785Z" fill="#011856"/>
<path d="M157.102 169.846H210.247L224.533 134.416C224.72 133.947 224.59 133.774 224.533 133.273C224.476 132.772 224.248 131.975 223.962 131.558C223.675 131.142 223.555 130.937 223.104 130.701C222.653 130.466 222.185 130.415 221.676 130.416H179.388C177.367 130.414 175.917 131.005 174.245 132.13C172.573 133.254 170.987 134.841 170.245 136.701L157.102 169.846Z" fill="#0B61A3"/>
<path d="M177.148 87.0655C177.795 87.4467 178.119 87.961 178.119 88.6084C178.119 89.1039 177.928 89.5227 177.547 89.8656C177.205 90.1702 176.748 90.3228 176.176 90.3228C175.757 90.3228 175.376 90.2468 175.033 90.0942L151.946 79.6367C151.414 79.4081 150.994 79.0652 150.689 78.608C150.385 78.1126 150.232 77.5606 150.232 76.9508C150.232 76.3794 150.385 75.8651 150.689 75.4079C150.994 74.9508 151.414 74.6079 151.946 74.3793L175.033 63.9218C175.49 63.7315 175.872 63.636 176.176 63.636C176.748 63.636 177.205 63.8075 177.547 64.1503C177.928 64.4549 178.119 64.8744 178.119 65.4075C178.119 66.055 177.795 66.5504 177.148 66.8933L154.633 77.008L177.148 87.0655Z" fill="white"/>
<path d="M184.497 95.2944C184.345 95.7898 184.096 96.1704 183.754 96.4373C183.411 96.7042 183.03 96.8373 182.611 96.8373C182.078 96.8373 181.602 96.647 181.182 96.2659C180.763 95.8847 180.554 95.4087 180.554 94.8372C180.554 94.6087 180.611 94.3418 180.726 94.0372L194.212 51.8642C194.365 51.3687 194.611 50.9881 194.954 50.7213C195.297 50.4544 195.678 50.3212 196.097 50.3212C196.63 50.3212 197.107 50.5115 197.526 50.8927C197.944 51.2738 198.155 51.7687 198.155 52.3785C198.155 52.4927 198.116 52.7402 198.04 53.1213L184.497 95.2944Z" fill="white"/>
<path d="M226.852 74.3793C227.386 74.6079 227.805 74.9508 228.11 75.4079C228.415 75.8651 228.567 76.3794 228.567 76.9508C228.567 77.5606 228.415 78.1126 228.11 78.608C227.805 79.0652 227.386 79.4081 226.852 79.6367L203.766 90.0942C203.423 90.2468 203.042 90.3228 202.623 90.3228C202.09 90.3228 201.633 90.1702 201.252 89.8656C200.87 89.5227 200.68 89.1039 200.68 88.6084C200.68 87.961 201.023 87.4467 201.709 87.0655L224.167 77.008L201.709 66.8933C201.023 66.5887 200.68 66.0933 200.68 65.4075C200.68 64.8744 200.851 64.4549 201.194 64.1503C201.576 63.8075 202.052 63.636 202.623 63.636C202.928 63.636 203.309 63.7315 203.766 63.9218L226.852 74.3793Z" fill="white"/>
<defs>
<linearGradient id="paint0_linear_103_137" x1="66.5669" y1="264.91" x2="132.709" y2="142.443" gradientUnits="userSpaceOnUse">
<stop stop-color="#FFC947"/>
<stop offset="0.64" stop-color="#FFC947"/>
<stop offset="1" stop-color="#FFC947"/>
</linearGradient>
<linearGradient id="paint1_linear_103_137" x1="161.29" y1="136.932" x2="211.824" y2="-9.03213" gradientUnits="userSpaceOnUse">
<stop stop-color="#0A1931"/>
<stop offset="0.64" stop-color="#0A1931"/>
<stop offset="1" stop-color="#0A1931"/>
</linearGradient>
<linearGradient id="paint2_linear_103_137" x1="177.014" y1="247.51" x2="188.583" y2="222.367" gradientUnits="userSpaceOnUse">
<stop stop-color="#00346B"/>
<stop offset="0.64" stop-color="#005088"/>
<stop offset="1" stop-color="#006BA6"/>
</linearGradient>
<linearGradient id="paint3_linear_103_137" x1="244.465" y1="55.5578" x2="260.893" y2="13.431" gradientUnits="userSpaceOnUse">
<stop stop-color="#185ADB"/>
<stop offset="0.64" stop-color="#185ADB"/>
<stop offset="1" stop-color="#185ADB"/>
</linearGradient>
</defs>
</svg>
