<svg width="54" height="54" viewBox="0 0 54 54" fill="none" xmlns="http://www.w3.org/2000/svg">
<path d="M53.9316 8.25043V38.1108L50.7884 41.254H3.43091L0.28772 38.1108V8.25043C0.28772 7.37023 0.979118 6.67883 1.85932 6.67883H52.36C53.2402 6.67883 53.9316 7.37023 53.9316 8.25043Z" fill="#2C3B73"/>
<path d="M53.9315 8.25043V38.1108L50.7883 41.254H27.1096V6.67883H52.3599C53.2401 6.67883 53.9315 7.37023 53.9315 8.25043Z" fill="#293939"/>
<path d="M50.7884 9.82202H3.43091V41.254H50.7884V9.82202Z" fill="#979FEF"/>
<path d="M50.7883 9.82202H27.1096V41.254H50.7883V9.82202Z" fill="#737EE6"/>
<path d="M44.3972 1.85926V39.6824C44.3972 40.5623 43.7058 41.2539 42.8256 41.2539H11.3936C10.5134 41.2539 9.82202 40.5623 9.82202 39.6824V1.85926C9.82202 0.979056 10.5134 0.287659 11.3936 0.287659H42.8256C43.7058 0.287659 44.3972 0.979056 44.3972 1.85926Z" fill="#EDF5FF"/>
<path d="M44.3972 1.85926V39.6824C44.3972 40.5623 43.7058 41.2539 42.8256 41.2539H27.1096V0.287659H42.8256C43.7058 0.287659 44.3972 0.979056 44.3972 1.85926Z" fill="#D7E9FF"/>
<path d="M34.9677 42.8256H19.2517V52.3599H34.9677V42.8256Z" fill="#EDF5FF"/>
<path d="M34.9676 42.8256H27.1096V52.3599H34.9676V42.8256Z" fill="#D7E9FF"/>
<path d="M41.254 52.3599C41.254 53.2399 40.5626 53.9315 39.6824 53.9315H14.5368C13.6566 53.9315 12.9652 53.2399 12.9652 52.3599C12.9652 51.4797 13.6566 50.7883 14.5368 50.7883H39.6824C40.5626 50.7883 41.254 51.4797 41.254 52.3599Z" fill="#D7E9FF"/>
<path d="M20.8232 14.5368C20.4211 14.5368 20.019 14.3833 19.7121 14.0763L16.5689 10.9331C15.9551 10.3192 15.9551 9.32463 16.5689 8.71077C17.1828 8.0969 18.1774 8.0969 18.7913 8.71077L20.8232 10.7428L24.4269 7.13917C25.0408 6.52531 26.0354 6.52531 26.6492 7.13917C27.2631 7.75304 27.2631 8.74765 26.6492 9.36151L21.9345 14.0763C21.6275 14.3833 21.2254 14.5368 20.8232 14.5368Z" fill="#979FEF"/>
<path d="M20.8232 23.9664C20.4211 23.9664 20.019 23.8129 19.7121 23.5059L16.5689 20.3627C15.9551 19.7489 15.9551 18.7543 16.5689 18.1404C17.1828 17.5265 18.1774 17.5265 18.7913 18.1404L20.8232 20.1725L24.4269 16.5688C25.0408 15.9549 26.0354 15.9549 26.6492 16.5688C27.2631 17.1827 27.2631 18.1773 26.6492 18.7911L21.9345 23.5059C21.6275 23.8129 21.2254 23.9664 20.8232 23.9664Z" fill="#979FEF"/>
<path d="M20.8232 33.396C20.4211 33.396 20.019 33.2425 19.7121 32.9355L16.5689 29.7923C15.9551 29.1784 15.9551 28.1838 16.5689 27.57C17.1828 26.9561 18.1774 26.9561 18.7913 27.57L20.8232 29.602L24.4269 25.9984C25.0408 25.3845 26.0354 25.3845 26.6492 25.9984C27.2631 26.6122 27.2631 27.6068 26.6492 28.2207L21.9345 32.9355C21.6275 33.2425 21.2254 33.396 20.8232 33.396Z" fill="#979FEF"/>
<path d="M36.5393 12.9652H30.2529C29.3842 12.9652 28.6813 12.2623 28.6813 11.3936C28.6813 10.5249 29.3842 9.82202 30.2529 9.82202H36.5393C37.4079 9.82202 38.1109 10.5249 38.1109 11.3936C38.1109 12.2623 37.4079 12.9652 36.5393 12.9652Z" fill="#B0D5F7"/>
<path d="M36.5393 22.3948H30.2529C29.3842 22.3948 28.6813 21.6919 28.6813 20.8232C28.6813 19.9545 29.3842 19.2516 30.2529 19.2516H36.5393C37.4079 19.2516 38.1109 19.9545 38.1109 20.8232C38.1109 21.6919 37.4079 22.3948 36.5393 22.3948Z" fill="#B0D5F7"/>
<path d="M36.5393 31.8243H30.2529C29.3842 31.8243 28.6813 31.1214 28.6813 30.2527C28.6813 29.3841 29.3842 28.6812 30.2529 28.6812H36.5393C37.4079 28.6812 38.1109 29.3841 38.1109 30.2527C38.1109 31.1214 37.4079 31.8243 36.5393 31.8243Z" fill="#B0D5F7"/>
<path d="M41.254 52.3599C41.254 53.2399 40.5626 53.9315 39.6824 53.9315H27.1096V50.7883H39.6824C40.5626 50.7883 41.254 51.4797 41.254 52.3599Z" fill="#B0D5F7"/>
<path d="M53.9316 38.1108V42.8256C53.9316 43.7056 53.2402 44.3972 52.36 44.3972H1.85932C0.979118 44.3972 0.28772 43.7056 0.28772 42.8256V38.1108H53.9316Z" fill="#D7E9FF"/>
<path d="M53.9315 38.1108V42.8256C53.9315 43.7056 53.2401 44.3972 52.3599 44.3972H27.1096V38.1108H53.9315Z" fill="#B0D5F7"/>
</svg>
