<svg width="51" height="51" viewBox="0 0 51 51" fill="none" xmlns="http://www.w3.org/2000/svg">
<path d="M27.1801 19.5775L36.4784 0.451729C36.6129 0.175512 36.8947 0 37.2047 0H50.1944C50.4714 0 50.7287 0.140848 50.8766 0.372738C51.0238 0.604629 51.0403 0.895289 50.9207 1.14202L38.5928 26.5C38.4929 26.7051 38.3095 26.8584 38.0884 26.921C38.0159 26.9417 37.9412 26.9518 37.8665 26.9518C37.7154 26.9518 37.5659 26.9098 37.4353 26.8285L27.4752 20.5963C27.1297 20.3799 27.0031 19.9417 27.1801 19.5775Z" fill="#FF4F19"/>
<path d="M44.2331 0H50.1944C50.4714 0 50.7287 0.140848 50.8766 0.372738C51.0238 0.604629 51.0403 0.895289 50.9207 1.14202L38.5928 26.5C38.4929 26.7051 38.3095 26.8584 38.0884 26.921C38.016 26.9417 37.9412 26.9518 37.8665 26.9518C37.7154 26.9518 37.5659 26.9098 37.4353 26.8285L32.647 23.8323L44.2331 0Z" fill="#E3001E"/>
<path d="M23.8198 19.5775L14.5216 0.451729C14.387 0.175512 14.1053 0 13.7953 0H0.805586C0.52859 0 0.271236 0.140848 0.123371 0.372738C-0.0237893 0.604629 -0.0403083 0.895289 0.0792531 1.14202L12.4072 26.5C12.5071 26.7051 12.6905 26.8584 12.9116 26.921C12.984 26.9417 13.0588 26.9518 13.1335 26.9518C13.2846 26.9518 13.4341 26.9098 13.5647 26.8285L23.5248 20.5963C23.8702 20.3799 23.9969 19.9417 23.8198 19.5775Z" fill="#FF4F19"/>
<path d="M6.76683 0H0.805586C0.52859 0 0.271236 0.140848 0.123371 0.372738C-0.0237893 0.604629 -0.0403083 0.895289 0.079253 1.14202L12.4072 26.5C12.5071 26.7051 12.6905 26.8584 12.9116 26.921C12.984 26.9417 13.0588 26.9518 13.1335 26.9518C13.2846 26.9518 13.4341 26.9098 13.5647 26.8285L18.353 23.8323L6.76683 0Z" fill="#E3001E"/>
<path d="M25.511 51C34.4117 51 41.6271 43.8645 41.6271 35.0625C41.6271 26.2605 34.4117 19.125 25.511 19.125C16.6103 19.125 9.3949 26.2605 9.3949 35.0625C9.3949 43.8645 16.6103 51 25.511 51Z" fill="#FFCD00"/>
<path d="M25.511 51C29.9614 51 33.9904 49.2161 36.9067 46.332L14.1152 23.793C11.1987 26.6771 9.3949 30.6615 9.3949 35.0625C9.3949 43.8645 16.6103 51 25.511 51Z" fill="#FF9100"/>
<path d="M29.7248 42.9523C30.0687 42.9523 30.4102 42.8457 30.7021 42.6359C31.2192 42.2647 31.4725 41.6476 31.3647 41.0254L31.3282 40.8154L29.3547 38.8638L29.7767 41.2947L30.5707 41.16L29.698 41.3506L25.8853 39.3686C25.6508 39.2464 25.3707 39.2464 25.1362 39.3686L21.3236 41.3506L21.6982 42.0561L21.2457 41.2946L21.9736 37.0965C22.0185 36.8381 21.9319 36.5744 21.7423 36.3911L18.6576 33.4179L18.0949 33.9887L18.6875 33.3272L22.9494 32.7148C23.0006 32.7074 23.0489 32.6916 23.0968 32.6751L21.6912 31.2849L18.4553 31.7498C17.8235 31.8408 17.3087 32.2707 17.1112 32.8712C16.9137 33.4716 17.0751 34.1183 17.5323 34.5595L20.314 37.24L19.6577 41.0251C19.5499 41.6473 19.8032 42.2644 20.3202 42.6356C20.8348 43.0056 21.5077 43.0543 22.0727 42.7613L25.5107 40.9742L28.9488 42.7613C29.1945 42.8892 29.4604 42.9523 29.7248 42.9523Z" fill="#FFCD00"/>
<path d="M12.6204 35.8594C12.4103 35.8594 12.201 35.7714 12.0475 35.6283C11.9026 35.4769 11.8146 35.2695 11.8146 35.0625C11.8146 34.8551 11.9027 34.6481 12.0475 34.4967C12.3457 34.2018 12.8855 34.2018 13.1837 34.4967C13.3371 34.6481 13.4261 34.8551 13.4261 35.0625C13.4261 35.2695 13.3371 35.4769 13.1837 35.6283C13.039 35.7714 12.8297 35.8594 12.6204 35.8594Z" fill="#FFCD00"/>
<path d="M25.5133 48.6094C25.3032 48.6094 25.0939 48.5214 24.9405 48.3783C24.7878 48.2269 24.7075 48.0195 24.7075 47.8125C24.7075 47.6051 24.7878 47.3981 24.9405 47.2467C25.2474 46.9518 25.7785 46.9518 26.0768 47.2467C26.2302 47.3981 26.3191 47.6051 26.3191 47.8125C26.3191 48.0195 26.2302 48.2269 26.0768 48.3783C25.9319 48.5214 25.7226 48.6094 25.5133 48.6094Z" fill="#FFCD00"/>
<path d="M16.3913 44.872C16.1819 44.872 15.9718 44.7923 15.827 44.641C15.6736 44.4892 15.5854 44.2822 15.5854 44.0752C15.5854 43.8678 15.6736 43.6608 15.827 43.5172C16.1252 43.2222 16.665 43.2144 16.9633 43.5172C17.116 43.6607 17.197 43.8678 17.197 44.0752C17.197 44.2822 17.1159 44.4892 16.9633 44.641C16.8186 44.7924 16.6085 44.872 16.3913 44.872Z" fill="#FFCD00"/>
<path d="M13.6033 40.7359C13.3853 40.7359 13.176 40.6566 13.0312 40.5048C12.8778 40.3534 12.7975 40.1465 12.7975 39.9391C12.7975 39.7321 12.8778 39.5247 13.0312 39.3815C13.3294 39.0787 13.8692 39.0787 14.1675 39.3815C14.3202 39.5247 14.409 39.7321 14.409 39.9391C14.409 40.1465 14.3201 40.3534 14.1675 40.5048C14.0219 40.6566 13.8126 40.7359 13.6033 40.7359Z" fill="#FFCD00"/>
<path d="M30.4441 47.637C30.2348 47.637 30.0255 47.5572 29.872 47.4059C29.7271 47.2626 29.6383 47.0552 29.6383 46.8401C29.6383 46.6331 29.7272 46.4257 29.872 46.2743C30.1781 45.9794 30.71 45.9794 31.0161 46.2743C31.1617 46.4257 31.2498 46.6331 31.2498 46.8401C31.2498 47.0475 31.1617 47.2545 31.0161 47.4059C30.8635 47.5572 30.6542 47.637 30.4441 47.637Z" fill="#FFCD00"/>
<path d="M13.6033 30.9824C13.3853 30.9824 13.176 30.8948 13.0312 30.7431C12.8778 30.5999 12.7975 30.3925 12.7975 30.1855C12.7975 29.9703 12.8778 29.7629 13.0312 29.6197C13.3294 29.3248 13.8692 29.3248 14.1675 29.6197C14.3202 29.7711 14.409 29.9703 14.409 30.1855C14.409 30.3925 14.3201 30.5999 14.1675 30.7431C14.0219 30.8948 13.8126 30.9824 13.6033 30.9824Z" fill="#FFCD00"/>
<path d="M20.573 47.637C20.3637 47.637 20.1544 47.5572 20.0096 47.4059C19.8562 47.2545 19.7672 47.0553 19.7672 46.8401C19.7672 46.6331 19.8562 46.4257 20.0096 46.2821C20.307 45.9794 20.8476 45.9794 21.145 46.2821C21.2984 46.4256 21.3787 46.633 21.3787 46.8401C21.3787 47.0553 21.2984 47.2545 21.145 47.4059C21.0003 47.5572 20.791 47.637 20.573 47.637Z" fill="#FFCD00"/>
<path d="M12.8778 38.4013C12.6685 38.4013 12.4592 38.3134 12.3057 38.1702C12.1609 38.0188 12.072 37.8114 12.072 37.6044C12.072 37.397 12.161 37.1901 12.3057 37.0387C12.6118 36.7437 13.1437 36.7437 13.4498 37.0387C13.5954 37.1901 13.6835 37.397 13.6835 37.6044C13.6835 37.8114 13.5954 38.0188 13.4498 38.1702C13.2972 38.3135 13.0871 38.4013 12.8778 38.4013Z" fill="#FFCD00"/>
<path d="M28.0833 48.3541C27.8661 48.3541 27.656 48.2665 27.5112 48.123C27.3577 47.9716 27.2775 47.7646 27.2775 47.5572C27.2775 47.3502 27.3577 47.1428 27.5112 46.9914C27.8094 46.6965 28.3492 46.6965 28.6474 46.9914C28.8001 47.1428 28.889 47.3502 28.889 47.5572C28.889 47.7646 28.8 47.9716 28.6474 48.123C28.5028 48.2665 28.2927 48.3541 28.0833 48.3541Z" fill="#FFCD00"/>
<path d="M14.7632 28.8229C14.546 28.8229 14.3367 28.7353 14.1911 28.5918C14.0384 28.4404 13.9574 28.233 13.9574 28.026C13.9574 27.8108 14.0385 27.6116 14.1911 27.4602C14.4893 27.1653 15.0291 27.1653 15.3274 27.4602C15.4808 27.6116 15.5689 27.8186 15.5689 28.026C15.5689 28.233 15.4808 28.4404 15.3274 28.5918C15.1826 28.7353 14.9733 28.8229 14.7632 28.8229Z" fill="#FFCD00"/>
<path d="M18.398 46.4896C18.18 46.4896 17.9707 46.402 17.8258 46.2585C17.6724 46.1071 17.5922 45.9079 17.5922 45.6927C17.5922 45.4853 17.6724 45.2783 17.8258 45.1347C18.1233 44.832 18.6639 44.832 18.9613 45.1347C19.1147 45.2782 19.2037 45.4853 19.2037 45.6927C19.2037 45.9079 19.1147 46.1071 18.9613 46.2585C18.8167 46.402 18.6073 46.4896 18.398 46.4896Z" fill="#FFCD00"/>
<path d="M14.8198 42.9912C14.6105 42.9912 14.4012 42.9037 14.2477 42.7523C14.1029 42.6088 14.014 42.4017 14.014 42.1943C14.014 41.9792 14.103 41.78 14.2477 41.6286C14.5538 41.3336 15.0936 41.3336 15.3919 41.6286C15.5453 41.78 15.6255 41.9792 15.6255 42.1943C15.6255 42.4017 15.5453 42.6087 15.3919 42.7523C15.2393 42.9037 15.0378 42.9912 14.8198 42.9912Z" fill="#FFCD00"/>
<path d="M32.7246 46.4258C32.5075 46.4258 32.2982 46.346 32.1525 46.1947C31.9998 46.0514 31.9188 45.844 31.9188 45.6289C31.9188 45.4219 31.9999 45.2145 32.1525 45.0713C32.4429 44.7763 32.9905 44.7682 33.2888 45.0713C33.4422 45.2145 33.5303 45.4219 33.5303 45.6289C33.5303 45.844 33.4422 46.0514 33.2888 46.1947C33.1441 46.346 32.9347 46.4258 32.7246 46.4258Z" fill="#FFCD00"/>
<path d="M12.8533 33.4287C12.644 33.4287 12.4347 33.3412 12.2812 33.1898C12.1363 33.0463 12.0475 32.8392 12.0475 32.6318C12.0475 32.4167 12.1364 32.2175 12.2812 32.0661C12.5794 31.7711 13.1279 31.7711 13.4261 32.0661C13.5788 32.2175 13.6591 32.4167 13.6591 32.6318C13.6591 32.8392 13.5788 33.0462 13.4261 33.1898C13.2727 33.3412 13.0634 33.4287 12.8533 33.4287Z" fill="#FFCD00"/>
<path d="M23.0471 48.3783C22.8378 48.3783 22.6285 48.2903 22.4828 48.139C22.3301 47.9958 22.2491 47.7884 22.2491 47.5814C22.2491 47.3663 22.3302 47.1589 22.4828 47.0156C22.7811 46.7207 23.3209 46.7207 23.6191 47.0156C23.7725 47.1589 23.8528 47.3663 23.8528 47.5814C23.8528 47.7884 23.7725 47.9958 23.6191 48.139C23.4744 48.2903 23.2651 48.3783 23.0471 48.3783Z" fill="#FFCD00"/>
<path d="M15.8263 25.4852C15.6735 25.6284 15.5854 25.8351 15.5854 26.0498C15.5854 26.2567 15.6736 26.4641 15.827 26.6074C15.9718 26.7588 16.1818 26.8466 16.3913 26.8466C16.6078 26.8466 16.8087 26.759 16.962 26.6083L15.8263 25.4852Z" fill="#FFCD00"/>
<path d="M34.6266 44.872C34.8354 44.872 35.0441 44.7924 35.1975 44.6416L34.0581 43.5148L34.0545 43.5171C33.9096 43.6607 33.8208 43.8677 33.8208 44.0751C33.8208 44.2899 33.9097 44.4973 34.0545 44.6409C34.2072 44.7923 34.4173 44.872 34.6266 44.872Z" fill="#FFCD00"/>
</svg>
